<svg xmlns="http://www.w3.org/2000/svg" viewBox="0 0 69.38 98.46"><defs><style>.cls-1{fill:#fff;}</style></defs><g id="Layer_2" data-name="Layer 2"><g id="Layer_1-2" data-name="Layer 1"><path class="cls-1" d="M68.14,0V14H62l1.41,2.35A33.59,33.59,0,1,1,34.55,0C45.66,0,56.77,0,68.14,0ZM34.49,52.34A18.74,18.74,0,1,0,15.91,33.45,18.89,18.89,0,0,0,34.49,52.34Z"/><path class="cls-1" d="M.05,63.84c14.35-.58,31.89,10.38,34.5,31.05C38.4,75.64,49.78,65.28,69.38,63.45,69.27,74.38,65.25,83.16,57.29,90A34.56,34.56,0,0,1,19,94.68C7.33,88.79-.72,75.71.05,63.84Z"/></g></g></svg>